<svg xmlns="http://www.w3.org/2000/svg" width="2400" height="720" viewBox="0 0 2400 720" role="img" aria-labelledby="title desc">
  <title id="title">Nuvei documentation hub banner</title>
  <desc id="desc">Minimal Nuvei-branded banner with a dark navy field, cyan payment rails, and a small Nuvei wordmark.</desc>
  <defs>
    <linearGradient id="navy" x1="0" x2="1" y1="0" y2="1">
      <stop offset="0" stop-color="#160850"/>
      <stop offset="0.58" stop-color="#120640"/>
      <stop offset="1" stop-color="#070218"/>
    </linearGradient>
    <linearGradient id="cyan" x1="0" x2="1" y1="0" y2="1">
      <stop offset="0" stop-color="#66D9FF"/>
      <stop offset="1" stop-color="#0C98D4"/>
    </linearGradient>
    <filter id="softShadow" x="-20%" y="-20%" width="140%" height="140%">
      <feDropShadow dx="0" dy="26" stdDeviation="34" flood-color="#05010F" flood-opacity="0.32"/>
    </filter>
  </defs>

  <rect width="2400" height="720" fill="url(#navy)"/>
  <rect x="0" y="0" width="2400" height="720" fill="#160850" opacity="0.28"/>

  <g opacity="0.2" fill="none" stroke="#FAF9F8" stroke-width="2">
    <path d="M-120 128 C240 72 548 88 840 176 S1400 282 1840 170 S2318 96 2520 142"/>
    <path d="M-120 244 C260 190 610 202 936 302 S1518 410 1910 318 S2320 260 2520 316"/>
    <path d="M-120 372 C250 320 628 344 980 448 S1520 544 1928 470 S2324 440 2520 500"/>
  </g>

  <path d="M1296 606 C1538 504 1702 482 1926 518 C2118 548 2242 528 2400 442 L2400 720 L1296 720 Z" fill="#FAF9F8" opacity="0.95"/>
  <path d="M1480 646 C1640 572 1830 570 2014 612 C2170 648 2292 638 2400 574 L2400 720 L1480 720 Z" fill="url(#cyan)" opacity="0.94"/>

  <g filter="url(#softShadow)" opacity="0.98">
    <rect x="1568" y="134" width="438" height="280" rx="44" fill="#FAF9F8"/>
    <rect x="1606" y="174" width="104" height="18" rx="9" fill="#160850" opacity="0.2"/>
    <rect x="1606" y="216" width="278" height="20" rx="10" fill="#160850" opacity="0.14"/>
    <rect x="1606" y="264" width="340" height="26" rx="13" fill="#0C98D4" opacity="0.22"/>
    <rect x="1606" y="322" width="142" height="36" rx="18" fill="#160850"/>
    <rect x="1770" y="322" width="116" height="36" rx="18" fill="#0C98D4"/>
  </g>

  <g filter="url(#softShadow)">
    <rect x="1894" y="302" width="282" height="176" rx="36" fill="#0C98D4"/>
    <rect x="1930" y="342" width="92" height="14" rx="7" fill="#FAF9F8" opacity="0.72"/>
    <rect x="1930" y="382" width="206" height="18" rx="9" fill="#FAF9F8" opacity="0.42"/>
    <rect x="1930" y="426" width="132" height="20" rx="10" fill="#FAF9F8" opacity="0.78"/>
  </g>

  <g opacity="0.42" fill="none" stroke-linecap="round" stroke-width="8">
    <path d="M1192 194 C1324 126 1450 124 1568 170" stroke="#66D9FF"/>
    <path d="M1324 330 C1474 258 1682 270 1894 352" stroke="#FAF9F8"/>
    <path d="M1168 464 C1366 386 1622 424 1862 516" stroke="#66D9FF"/>
  </g>

  <g transform="translate(158 104) scale(2.68)">
    <path d="M16.7147 12.9219V24.587H11.7424V15.1166C11.7424 13.0885 10.6962 12.058 8.62392 12.058C7.23303 12.058 5.99045 12.6604 5.03446 13.7955L4.96632 13.875V24.587H0V8.27098H4.96632V10.6613L5.4373 10.2546C6.77608 9.0923 8.99669 7.85645 11.2474 7.85645C14.7166 7.85645 16.7147 9.70249 16.7147 12.9219Z" fill="#FAF9F8"/>
    <path d="M70.2631 17.8479V16.9685C70.2631 11.5175 66.8159 7.85449 61.6772 7.85449C56.5385 7.85449 52.7246 11.5311 52.7246 16.4087C52.7246 21.2862 56.5085 24.9996 61.9237 24.9996C64.6394 24.9996 67.2488 24.2364 68.812 22.9928L66.7858 20.093C65.7316 20.8775 64.1003 21.3947 62.6132 21.3947C59.7713 21.3947 58.3283 19.7385 57.9535 18.3206C57.8934 18.1791 57.8693 17.8479 57.8693 17.8479H70.2631ZM57.7891 14.9055L57.8493 14.5859C58.1118 13.0749 59.2622 11.4613 61.6792 11.4613C64.2526 11.4613 65.3729 13.1544 65.5452 14.6014L65.5833 14.9074H57.7911L57.7891 14.9055Z" fill="#FAF9F8"/>
    <path d="M76.611 8.27051H71.6387V24.5866H76.611V8.27051Z" fill="#FAF9F8"/>
    <path d="M30.1322 8.27147H35.0985V24.5875H30.1322V22.2901L29.6612 22.6969C28.3906 23.8166 26.192 25.0001 23.8512 25.0001C20.3519 25.0001 18.4219 23.2277 18.4219 20.0063V8.26953H23.3942V17.8039C23.3942 19.8165 24.4264 20.7986 26.5428 20.7986C28.2924 20.7986 29.4287 19.8533 30.0721 19.0552L30.1322 18.9816V8.26953V8.27147Z" fill="#FAF9F8"/>
    <path d="M53.7598 8.27051L47.156 24.5846H41.6506L35.0469 8.27051H40.2898L44.4043 19.3158L48.5169 8.27051H53.7598Z" fill="#FAF9F8"/>
    <path d="M77.0002 2.79715C77.0002 4.36619 75.7356 5.5943 74.1202 5.5943C72.5049 5.5943 71.2402 4.36619 71.2402 2.79715C71.2402 1.22811 72.5049 0 74.1202 0C75.7356 0 77.0002 1.22811 77.0002 2.79715Z" fill="#66D9FF"/>
  </g>
</svg>
